<mxfile host="app.diagrams.net" modified="2024-05-03T05:28:40.319Z" agent="Mozilla/5.0 (Windows NT 10.0; Win64; x64) AppleWebKit/537.36 (KHTML, like Gecko) Chrome/124.0.0.0 Safari/537.36" etag="EIPm4QHSQh29cW3oeDGY" version="24.3.1" type="github">
  <diagram name="PÃ¡gina-1" id="ToIkFttOFSR4fUJLuG0h">
    <mxGraphModel dx="3804" dy="870" grid="1" gridSize="10" guides="1" tooltips="1" connect="1" arrows="1" fold="1" page="1" pageScale="1" pageWidth="827" pageHeight="1169" math="0" shadow="0">
      <root>
        <mxCell id="0" />
        <mxCell id="1" parent="0" />
        <mxCell id="OvIMVc_6lYj28Pk6TYb7-2" value="Pizzaria" style="swimlane;fontStyle=1;align=center;verticalAlign=top;childLayout=stackLayout;horizontal=1;startSize=26;horizontalStack=0;resizeParent=1;resizeParentMax=0;resizeLast=0;collapsible=1;marginBottom=0;whiteSpace=wrap;html=1;" vertex="1" parent="1">
          <mxGeometry x="-1580" y="770" width="160" height="190" as="geometry" />
        </mxCell>
        <mxCell id="OvIMVc_6lYj28Pk6TYb7-3" value="+ saldo&lt;div&gt;+ sabores&lt;/div&gt;&lt;div&gt;+ tamanhos&lt;/div&gt;&lt;div&gt;+ adicionais&lt;/div&gt;" style="text;strokeColor=none;fillColor=none;align=left;verticalAlign=top;spacingLeft=4;spacingRight=4;overflow=hidden;rotatable=0;points=[[0,0.5],[1,0.5]];portConstraint=eastwest;whiteSpace=wrap;html=1;" vertex="1" parent="OvIMVc_6lYj28Pk6TYb7-2">
          <mxGeometry y="26" width="160" height="74" as="geometry" />
        </mxCell>
        <mxCell id="OvIMVc_6lYj28Pk6TYb7-4" value="" style="line;strokeWidth=1;fillColor=none;align=left;verticalAlign=middle;spacingTop=-1;spacingLeft=3;spacingRight=3;rotatable=0;labelPosition=right;points=[];portConstraint=eastwest;strokeColor=inherit;" vertex="1" parent="OvIMVc_6lYj28Pk6TYb7-2">
          <mxGeometry y="100" width="160" height="8" as="geometry" />
        </mxCell>
        <mxCell id="OvIMVc_6lYj28Pk6TYb7-5" value="+ menu_pizzaria&lt;div&gt;+ cadastrar-saldo&lt;/div&gt;&lt;div&gt;+viasualizar_saldo&lt;/div&gt;&lt;div&gt;+visualizar_armazem&lt;/div&gt;" style="text;strokeColor=none;fillColor=none;align=left;verticalAlign=top;spacingLeft=4;spacingRight=4;overflow=hidden;rotatable=0;points=[[0,0.5],[1,0.5]];portConstraint=eastwest;whiteSpace=wrap;html=1;" vertex="1" parent="OvIMVc_6lYj28Pk6TYb7-2">
          <mxGeometry y="108" width="160" height="82" as="geometry" />
        </mxCell>
        <mxCell id="OvIMVc_6lYj28Pk6TYb7-6" value="Pizzas" style="swimlane;fontStyle=1;align=center;verticalAlign=top;childLayout=stackLayout;horizontal=1;startSize=26;horizontalStack=0;resizeParent=1;resizeParentMax=0;resizeLast=0;collapsible=1;marginBottom=0;whiteSpace=wrap;html=1;" vertex="1" parent="1">
          <mxGeometry x="-1580" y="480" width="160" height="230" as="geometry" />
        </mxCell>
        <mxCell id="OvIMVc_6lYj28Pk6TYb7-7" value="+ sabores&lt;div&gt;+ tamanhos&lt;/div&gt;&lt;div&gt;+ adicionais&lt;/div&gt;&lt;div&gt;&lt;br&gt;&lt;/div&gt;" style="text;strokeColor=none;fillColor=none;align=left;verticalAlign=top;spacingLeft=4;spacingRight=4;overflow=hidden;rotatable=0;points=[[0,0.5],[1,0.5]];portConstraint=eastwest;whiteSpace=wrap;html=1;" vertex="1" parent="OvIMVc_6lYj28Pk6TYb7-6">
          <mxGeometry y="26" width="160" height="54" as="geometry" />
        </mxCell>
        <mxCell id="OvIMVc_6lYj28Pk6TYb7-8" value="" style="line;strokeWidth=1;fillColor=none;align=left;verticalAlign=middle;spacingTop=-1;spacingLeft=3;spacingRight=3;rotatable=0;labelPosition=right;points=[];portConstraint=eastwest;strokeColor=inherit;" vertex="1" parent="OvIMVc_6lYj28Pk6TYb7-6">
          <mxGeometry y="80" width="160" height="8" as="geometry" />
        </mxCell>
        <mxCell id="OvIMVc_6lYj28Pk6TYb7-9" value="+menu_pizzaria&lt;div&gt;+ cadastrar_pizza&lt;/div&gt;&lt;div&gt;+ remover_pizzar&lt;/div&gt;&lt;div&gt;+ visualizar_pizza&lt;/div&gt;&lt;div&gt;+ cadastrar_tamanho&lt;/div&gt;&lt;div&gt;+ remover_tamanho&lt;/div&gt;&lt;div&gt;+ visualizar_tamanho&lt;/div&gt;&lt;div&gt;+cadastrar_adicional&lt;/div&gt;&lt;div&gt;+ remover_adicional&lt;/div&gt;" style="text;strokeColor=none;fillColor=none;align=left;verticalAlign=top;spacingLeft=4;spacingRight=4;overflow=hidden;rotatable=0;points=[[0,0.5],[1,0.5]];portConstraint=eastwest;whiteSpace=wrap;html=1;" vertex="1" parent="OvIMVc_6lYj28Pk6TYb7-6">
          <mxGeometry y="88" width="160" height="142" as="geometry" />
        </mxCell>
        <mxCell id="OvIMVc_6lYj28Pk6TYb7-49" style="edgeStyle=orthogonalEdgeStyle;rounded=0;orthogonalLoop=1;jettySize=auto;html=1;exitX=0.5;exitY=0;exitDx=0;exitDy=0;entryX=0.5;entryY=0;entryDx=0;entryDy=0;" edge="1" parent="1" source="OvIMVc_6lYj28Pk6TYb7-10" target="OvIMVc_6lYj28Pk6TYb7-14">
          <mxGeometry relative="1" as="geometry" />
        </mxCell>
        <mxCell id="OvIMVc_6lYj28Pk6TYb7-10" value="Funcionario" style="swimlane;fontStyle=1;align=center;verticalAlign=top;childLayout=stackLayout;horizontal=1;startSize=26;horizontalStack=0;resizeParent=1;resizeParentMax=0;resizeLast=0;collapsible=1;marginBottom=0;whiteSpace=wrap;html=1;" vertex="1" parent="1">
          <mxGeometry x="-1280" y="490" width="160" height="140" as="geometry" />
        </mxCell>
        <mxCell id="OvIMVc_6lYj28Pk6TYb7-11" value="+ funcionarios" style="text;strokeColor=none;fillColor=none;align=left;verticalAlign=top;spacingLeft=4;spacingRight=4;overflow=hidden;rotatable=0;points=[[0,0.5],[1,0.5]];portConstraint=eastwest;whiteSpace=wrap;html=1;" vertex="1" parent="OvIMVc_6lYj28Pk6TYb7-10">
          <mxGeometry y="26" width="160" height="26" as="geometry" />
        </mxCell>
        <mxCell id="OvIMVc_6lYj28Pk6TYb7-12" value="" style="line;strokeWidth=1;fillColor=none;align=left;verticalAlign=middle;spacingTop=-1;spacingLeft=3;spacingRight=3;rotatable=0;labelPosition=right;points=[];portConstraint=eastwest;strokeColor=inherit;" vertex="1" parent="OvIMVc_6lYj28Pk6TYb7-10">
          <mxGeometry y="52" width="160" height="8" as="geometry" />
        </mxCell>
        <mxCell id="OvIMVc_6lYj28Pk6TYb7-13" value="+ menu_funcionarios&lt;div&gt;+ cadastrar_funcionario&lt;/div&gt;&lt;div&gt;+ remover_funcionario&lt;/div&gt;&lt;div&gt;+ visualizar_funcionario&lt;/div&gt;" style="text;strokeColor=none;fillColor=none;align=left;verticalAlign=top;spacingLeft=4;spacingRight=4;overflow=hidden;rotatable=0;points=[[0,0.5],[1,0.5]];portConstraint=eastwest;whiteSpace=wrap;html=1;" vertex="1" parent="OvIMVc_6lYj28Pk6TYb7-10">
          <mxGeometry y="60" width="160" height="80" as="geometry" />
        </mxCell>
        <mxCell id="OvIMVc_6lYj28Pk6TYb7-51" style="edgeStyle=orthogonalEdgeStyle;rounded=0;orthogonalLoop=1;jettySize=auto;html=1;exitX=0.5;exitY=0;exitDx=0;exitDy=0;entryX=0.5;entryY=0;entryDx=0;entryDy=0;" edge="1" parent="1" source="OvIMVc_6lYj28Pk6TYb7-14" target="OvIMVc_6lYj28Pk6TYb7-10">
          <mxGeometry relative="1" as="geometry" />
        </mxCell>
        <mxCell id="OvIMVc_6lYj28Pk6TYb7-14" value="Cliente" style="swimlane;fontStyle=1;align=center;verticalAlign=top;childLayout=stackLayout;horizontal=1;startSize=30;horizontalStack=0;resizeParent=1;resizeParentMax=0;resizeLast=0;collapsible=1;marginBottom=0;whiteSpace=wrap;html=1;" vertex="1" parent="1">
          <mxGeometry x="-1060" y="490" width="160" height="150" as="geometry" />
        </mxCell>
        <mxCell id="OvIMVc_6lYj28Pk6TYb7-15" value="+ clientes" style="text;strokeColor=none;fillColor=none;align=left;verticalAlign=top;spacingLeft=4;spacingRight=4;overflow=hidden;rotatable=0;points=[[0,0.5],[1,0.5]];portConstraint=eastwest;whiteSpace=wrap;html=1;" vertex="1" parent="OvIMVc_6lYj28Pk6TYb7-14">
          <mxGeometry y="30" width="160" height="26" as="geometry" />
        </mxCell>
        <mxCell id="OvIMVc_6lYj28Pk6TYb7-16" value="" style="line;strokeWidth=1;fillColor=none;align=left;verticalAlign=middle;spacingTop=-1;spacingLeft=3;spacingRight=3;rotatable=0;labelPosition=right;points=[];portConstraint=eastwest;strokeColor=inherit;" vertex="1" parent="OvIMVc_6lYj28Pk6TYb7-14">
          <mxGeometry y="56" width="160" height="8" as="geometry" />
        </mxCell>
        <mxCell id="OvIMVc_6lYj28Pk6TYb7-17" value="+ menu_cliente&lt;div&gt;+cadastrar_cliente&lt;/div&gt;&lt;div&gt;+ remover_cliente&lt;/div&gt;&lt;div&gt;+ visualizar_cliente&lt;/div&gt;" style="text;strokeColor=none;fillColor=none;align=left;verticalAlign=top;spacingLeft=4;spacingRight=4;overflow=hidden;rotatable=0;points=[[0,0.5],[1,0.5]];portConstraint=eastwest;whiteSpace=wrap;html=1;" vertex="1" parent="OvIMVc_6lYj28Pk6TYb7-14">
          <mxGeometry y="64" width="160" height="86" as="geometry" />
        </mxCell>
        <mxCell id="OvIMVc_6lYj28Pk6TYb7-53" style="edgeStyle=orthogonalEdgeStyle;rounded=0;orthogonalLoop=1;jettySize=auto;html=1;exitX=0.5;exitY=0;exitDx=0;exitDy=0;entryX=0.5;entryY=0;entryDx=0;entryDy=0;" edge="1" parent="1" source="OvIMVc_6lYj28Pk6TYb7-18" target="OvIMVc_6lYj28Pk6TYb7-23">
          <mxGeometry relative="1" as="geometry" />
        </mxCell>
        <mxCell id="OvIMVc_6lYj28Pk6TYb7-18" value="Pedido" style="swimlane;fontStyle=1;align=center;verticalAlign=top;childLayout=stackLayout;horizontal=1;startSize=26;horizontalStack=0;resizeParent=1;resizeParentMax=0;resizeLast=0;collapsible=1;marginBottom=0;whiteSpace=wrap;html=1;" vertex="1" parent="1">
          <mxGeometry x="-1290" y="700" width="160" height="210" as="geometry" />
        </mxCell>
        <mxCell id="OvIMVc_6lYj28Pk6TYb7-19" value="+ clientes&lt;div&gt;+ sabores&lt;/div&gt;&lt;div&gt;+ tamannhos&lt;/div&gt;&lt;div&gt;+ adicionais&lt;/div&gt;&lt;div&gt;+ pedidos&lt;/div&gt;&lt;div&gt;&lt;br&gt;&lt;/div&gt;" style="text;strokeColor=none;fillColor=none;align=left;verticalAlign=top;spacingLeft=4;spacingRight=4;overflow=hidden;rotatable=0;points=[[0,0.5],[1,0.5]];portConstraint=eastwest;whiteSpace=wrap;html=1;" vertex="1" parent="OvIMVc_6lYj28Pk6TYb7-18">
          <mxGeometry y="26" width="160" height="84" as="geometry" />
        </mxCell>
        <mxCell id="OvIMVc_6lYj28Pk6TYb7-20" value="" style="line;strokeWidth=1;fillColor=none;align=left;verticalAlign=middle;spacingTop=-1;spacingLeft=3;spacingRight=3;rotatable=0;labelPosition=right;points=[];portConstraint=eastwest;strokeColor=inherit;" vertex="1" parent="OvIMVc_6lYj28Pk6TYb7-18">
          <mxGeometry y="110" width="160" height="8" as="geometry" />
        </mxCell>
        <mxCell id="OvIMVc_6lYj28Pk6TYb7-21" value="+ menu_pedido&lt;div&gt;+ cadastrar_pedido&lt;/div&gt;&lt;div&gt;+ visualiar_pedido&lt;/div&gt;&lt;div&gt;+ calcular_valor_pedido&lt;/div&gt;&lt;div&gt;+ gerar_codigo_pedido&lt;/div&gt;&lt;div&gt;&lt;br&gt;&lt;/div&gt;" style="text;strokeColor=none;fillColor=none;align=left;verticalAlign=top;spacingLeft=4;spacingRight=4;overflow=hidden;rotatable=0;points=[[0,0.5],[1,0.5]];portConstraint=eastwest;whiteSpace=wrap;html=1;" vertex="1" parent="OvIMVc_6lYj28Pk6TYb7-18">
          <mxGeometry y="118" width="160" height="92" as="geometry" />
        </mxCell>
        <mxCell id="OvIMVc_6lYj28Pk6TYb7-54" style="edgeStyle=orthogonalEdgeStyle;rounded=0;orthogonalLoop=1;jettySize=auto;html=1;exitX=0.5;exitY=0;exitDx=0;exitDy=0;entryX=0.5;entryY=0;entryDx=0;entryDy=0;" edge="1" parent="1" source="OvIMVc_6lYj28Pk6TYb7-23" target="OvIMVc_6lYj28Pk6TYb7-18">
          <mxGeometry relative="1" as="geometry" />
        </mxCell>
        <mxCell id="OvIMVc_6lYj28Pk6TYb7-23" value="Delivery" style="swimlane;fontStyle=1;align=center;verticalAlign=top;childLayout=stackLayout;horizontal=1;startSize=26;horizontalStack=0;resizeParent=1;resizeParentMax=0;resizeLast=0;collapsible=1;marginBottom=0;whiteSpace=wrap;html=1;" vertex="1" parent="1">
          <mxGeometry x="-1049.5" y="700" width="160" height="160" as="geometry" />
        </mxCell>
        <mxCell id="OvIMVc_6lYj28Pk6TYb7-24" value="+ pedidos&lt;div&gt;+funcionarios&lt;/div&gt;&lt;div&gt;clientes&lt;/div&gt;" style="text;strokeColor=none;fillColor=none;align=left;verticalAlign=top;spacingLeft=4;spacingRight=4;overflow=hidden;rotatable=0;points=[[0,0.5],[1,0.5]];portConstraint=eastwest;whiteSpace=wrap;html=1;" vertex="1" parent="OvIMVc_6lYj28Pk6TYb7-23">
          <mxGeometry y="26" width="160" height="54" as="geometry" />
        </mxCell>
        <mxCell id="OvIMVc_6lYj28Pk6TYb7-25" value="" style="line;strokeWidth=1;fillColor=none;align=left;verticalAlign=middle;spacingTop=-1;spacingLeft=3;spacingRight=3;rotatable=0;labelPosition=right;points=[];portConstraint=eastwest;strokeColor=inherit;" vertex="1" parent="OvIMVc_6lYj28Pk6TYb7-23">
          <mxGeometry y="80" width="160" height="8" as="geometry" />
        </mxCell>
        <mxCell id="OvIMVc_6lYj28Pk6TYb7-26" value="+ menu_delivery&lt;div&gt;+ visualiar_delivery&lt;/div&gt;&lt;div&gt;obter_endereÃ§o_cliente&lt;/div&gt;&lt;div&gt;+ finalizar_delivery&lt;/div&gt;" style="text;strokeColor=none;fillColor=none;align=left;verticalAlign=top;spacingLeft=4;spacingRight=4;overflow=hidden;rotatable=0;points=[[0,0.5],[1,0.5]];portConstraint=eastwest;whiteSpace=wrap;html=1;" vertex="1" parent="OvIMVc_6lYj28Pk6TYb7-23">
          <mxGeometry y="88" width="160" height="72" as="geometry" />
        </mxCell>
        <mxCell id="OvIMVc_6lYj28Pk6TYb7-27" value="clientes" style="html=1;whiteSpace=wrap;" vertex="1" parent="1">
          <mxGeometry x="-1570" y="200" width="110" height="50" as="geometry" />
        </mxCell>
        <mxCell id="OvIMVc_6lYj28Pk6TYb7-28" value="funcionarios" style="html=1;whiteSpace=wrap;" vertex="1" parent="1">
          <mxGeometry x="-1570" y="280" width="110" height="50" as="geometry" />
        </mxCell>
        <mxCell id="OvIMVc_6lYj28Pk6TYb7-29" value="sabores" style="html=1;whiteSpace=wrap;" vertex="1" parent="1">
          <mxGeometry x="-1400" y="200" width="110" height="50" as="geometry" />
        </mxCell>
        <mxCell id="OvIMVc_6lYj28Pk6TYb7-30" value="tamanhos" style="html=1;whiteSpace=wrap;" vertex="1" parent="1">
          <mxGeometry x="-1400" y="280" width="110" height="50" as="geometry" />
        </mxCell>
        <mxCell id="OvIMVc_6lYj28Pk6TYb7-31" value="adicionais" style="html=1;whiteSpace=wrap;" vertex="1" parent="1">
          <mxGeometry x="-1240.5" y="200" width="110" height="50" as="geometry" />
        </mxCell>
        <mxCell id="OvIMVc_6lYj28Pk6TYb7-32" value="pedidos" style="html=1;whiteSpace=wrap;" vertex="1" parent="1">
          <mxGeometry x="-1240.5" y="280" width="110" height="50" as="geometry" />
        </mxCell>
        <mxCell id="OvIMVc_6lYj28Pk6TYb7-34" value="saldo" style="html=1;whiteSpace=wrap;" vertex="1" parent="1">
          <mxGeometry x="-1080" y="200" width="110" height="50" as="geometry" />
        </mxCell>
        <mxCell id="OvIMVc_6lYj28Pk6TYb7-36" value="&lt;h1 style=&quot;margin-top: 0px;&quot;&gt;PIZZARIA&lt;/h1&gt;&lt;p&gt;Implementar um sistema de pizzaria, o sistema deve ter armazenar (listas) Ã s informaÃ§Ãµes de clientes, mercadorias, funcionÃ¡rios,assim como a venda e entrega de pizzas&lt;/p&gt;" style="text;html=1;whiteSpace=wrap;overflow=hidden;rounded=0;" vertex="1" parent="1">
          <mxGeometry x="-1560" y="40" width="290" height="130" as="geometry" />
        </mxCell>
        <mxCell id="OvIMVc_6lYj28Pk6TYb7-100" style="edgeStyle=orthogonalEdgeStyle;rounded=0;orthogonalLoop=1;jettySize=auto;html=1;exitX=1;exitY=0.5;exitDx=0;exitDy=0;entryX=1;entryY=0.5;entryDx=0;entryDy=0;elbow=vertical;" edge="1" parent="1" source="OvIMVc_6lYj28Pk6TYb7-42" target="OvIMVc_6lYj28Pk6TYb7-24">
          <mxGeometry relative="1" as="geometry">
            <Array as="points">
              <mxPoint x="-840" y="386" />
              <mxPoint x="-840" y="753" />
            </Array>
          </mxGeometry>
        </mxCell>
        <mxCell id="OvIMVc_6lYj28Pk6TYb7-42" value="Main" style="swimlane;fontStyle=0;childLayout=stackLayout;horizontal=1;startSize=26;fillColor=none;horizontalStack=0;resizeParent=1;resizeParentMax=0;resizeLast=0;collapsible=1;marginBottom=0;whiteSpace=wrap;html=1;" vertex="1" parent="1">
          <mxGeometry x="-1330" y="360" width="140" height="52" as="geometry" />
        </mxCell>
        <mxCell id="OvIMVc_6lYj28Pk6TYb7-43" value="+ menu_principal" style="text;strokeColor=none;fillColor=none;align=left;verticalAlign=top;spacingLeft=4;spacingRight=4;overflow=hidden;rotatable=0;points=[[0,0.5],[1,0.5]];portConstraint=eastwest;whiteSpace=wrap;html=1;" vertex="1" parent="OvIMVc_6lYj28Pk6TYb7-42">
          <mxGeometry y="26" width="140" height="26" as="geometry" />
        </mxCell>
        <mxCell id="OvIMVc_6lYj28Pk6TYb7-57" style="edgeStyle=orthogonalEdgeStyle;rounded=0;orthogonalLoop=1;jettySize=auto;html=1;exitX=0;exitY=0.5;exitDx=0;exitDy=0;entryX=0;entryY=0.5;entryDx=0;entryDy=0;" edge="1" parent="1" source="OvIMVc_6lYj28Pk6TYb7-9" target="OvIMVc_6lYj28Pk6TYb7-3">
          <mxGeometry relative="1" as="geometry" />
        </mxCell>
        <mxCell id="OvIMVc_6lYj28Pk6TYb7-69" style="edgeStyle=orthogonalEdgeStyle;rounded=0;orthogonalLoop=1;jettySize=auto;html=1;exitX=1;exitY=0.5;exitDx=0;exitDy=0;entryX=0.014;entryY=0.339;entryDx=0;entryDy=0;entryPerimeter=0;shadow=0;" edge="1" parent="1" source="OvIMVc_6lYj28Pk6TYb7-3" target="OvIMVc_6lYj28Pk6TYb7-19">
          <mxGeometry relative="1" as="geometry" />
        </mxCell>
        <mxCell id="OvIMVc_6lYj28Pk6TYb7-84" value="" style="endArrow=diamondThin;endFill=1;endSize=24;html=1;rounded=0;elbow=vertical;entryX=1;entryY=0.5;entryDx=0;entryDy=0;exitX=0;exitY=0.5;exitDx=0;exitDy=0;" edge="1" parent="1" source="OvIMVc_6lYj28Pk6TYb7-13" target="OvIMVc_6lYj28Pk6TYb7-7">
          <mxGeometry width="160" relative="1" as="geometry">
            <mxPoint x="-1470" y="640" as="sourcePoint" />
            <mxPoint x="-1310" y="640" as="targetPoint" />
            <Array as="points">
              <mxPoint x="-1350" y="590" />
              <mxPoint x="-1350" y="560" />
              <mxPoint x="-1350" y="533" />
            </Array>
          </mxGeometry>
        </mxCell>
        <mxCell id="OvIMVc_6lYj28Pk6TYb7-85" value="" style="endArrow=diamondThin;endFill=0;endSize=24;html=1;rounded=0;elbow=vertical;entryX=0;entryY=0.5;entryDx=0;entryDy=0;exitX=1;exitY=0.5;exitDx=0;exitDy=0;" edge="1" parent="1" source="OvIMVc_6lYj28Pk6TYb7-9" target="OvIMVc_6lYj28Pk6TYb7-21">
          <mxGeometry width="160" relative="1" as="geometry">
            <mxPoint x="-1430" y="990" as="sourcePoint" />
            <mxPoint x="-1270" y="990" as="targetPoint" />
            <Array as="points">
              <mxPoint x="-1360" y="640" />
              <mxPoint x="-1360" y="720" />
              <mxPoint x="-1360" y="864" />
            </Array>
          </mxGeometry>
        </mxCell>
        <mxCell id="OvIMVc_6lYj28Pk6TYb7-86" value="" style="endArrow=diamondThin;endFill=1;endSize=24;html=1;rounded=0;elbow=vertical;entryX=1;entryY=0.5;entryDx=0;entryDy=0;exitX=-0.025;exitY=0.132;exitDx=0;exitDy=0;exitPerimeter=0;" edge="1" parent="1" source="OvIMVc_6lYj28Pk6TYb7-13" target="OvIMVc_6lYj28Pk6TYb7-5">
          <mxGeometry width="160" relative="1" as="geometry">
            <mxPoint x="-1180" y="1040" as="sourcePoint" />
            <mxPoint x="-1020" y="1040" as="targetPoint" />
            <Array as="points">
              <mxPoint x="-1400" y="560" />
              <mxPoint x="-1400" y="740" />
              <mxPoint x="-1400" y="920" />
            </Array>
          </mxGeometry>
        </mxCell>
        <mxCell id="OvIMVc_6lYj28Pk6TYb7-87" value="" style="endArrow=diamondThin;endFill=1;endSize=24;html=1;rounded=0;elbow=vertical;entryX=0.5;entryY=0;entryDx=0;entryDy=0;" edge="1" parent="1" target="OvIMVc_6lYj28Pk6TYb7-2">
          <mxGeometry width="160" relative="1" as="geometry">
            <mxPoint x="-1500" y="710" as="sourcePoint" />
            <mxPoint x="-945" y="1050" as="targetPoint" />
          </mxGeometry>
        </mxCell>
        <mxCell id="OvIMVc_6lYj28Pk6TYb7-88" value="" style="endArrow=diamondThin;endFill=1;endSize=24;html=1;rounded=0;elbow=vertical;entryX=1;entryY=0.5;entryDx=0;entryDy=0;exitX=0;exitY=0.5;exitDx=0;exitDy=0;" edge="1" parent="1" source="OvIMVc_6lYj28Pk6TYb7-17" target="OvIMVc_6lYj28Pk6TYb7-5">
          <mxGeometry width="160" relative="1" as="geometry">
            <mxPoint x="-1000" y="760" as="sourcePoint" />
            <mxPoint x="-840" y="760" as="targetPoint" />
            <Array as="points">
              <mxPoint x="-1080" y="597" />
              <mxPoint x="-1080" y="919" />
            </Array>
          </mxGeometry>
        </mxCell>
        <mxCell id="OvIMVc_6lYj28Pk6TYb7-89" value="use" style="html=1;verticalAlign=bottom;endArrow=open;dashed=1;endSize=8;curved=0;rounded=0;elbow=vertical;entryX=0.25;entryY=0;entryDx=0;entryDy=0;exitX=1.021;exitY=0.332;exitDx=0;exitDy=0;exitPerimeter=0;" edge="1" parent="1" source="OvIMVc_6lYj28Pk6TYb7-9" target="OvIMVc_6lYj28Pk6TYb7-18">
          <mxGeometry relative="1" as="geometry">
            <mxPoint x="-1300" y="1040" as="sourcePoint" />
            <mxPoint x="-1380" y="1040" as="targetPoint" />
            <Array as="points">
              <mxPoint x="-1320" y="615" />
              <mxPoint x="-1320" y="660" />
              <mxPoint x="-1250" y="660" />
            </Array>
          </mxGeometry>
        </mxCell>
        <mxCell id="OvIMVc_6lYj28Pk6TYb7-90" value="" style="html=1;verticalAlign=bottom;endArrow=open;dashed=1;endSize=8;curved=0;rounded=0;elbow=vertical;exitX=1.021;exitY=0.345;exitDx=0;exitDy=0;exitPerimeter=0;entryX=0.25;entryY=0;entryDx=0;entryDy=0;" edge="1" parent="1" source="OvIMVc_6lYj28Pk6TYb7-9" target="OvIMVc_6lYj28Pk6TYb7-23">
          <mxGeometry relative="1" as="geometry">
            <mxPoint x="-1260" y="1000" as="sourcePoint" />
            <mxPoint x="-1340" y="1000" as="targetPoint" />
            <Array as="points">
              <mxPoint x="-1320" y="617" />
              <mxPoint x="-1320" y="660" />
              <mxPoint x="-1010" y="660" />
            </Array>
          </mxGeometry>
        </mxCell>
        <mxCell id="OvIMVc_6lYj28Pk6TYb7-92" value="use" style="html=1;verticalAlign=bottom;endArrow=open;dashed=1;endSize=8;curved=0;rounded=0;elbow=vertical;entryX=1;entryY=0.5;entryDx=0;entryDy=0;exitX=0;exitY=0.5;exitDx=0;exitDy=0;" edge="1" parent="1" source="OvIMVc_6lYj28Pk6TYb7-15" target="OvIMVc_6lYj28Pk6TYb7-19">
          <mxGeometry relative="1" as="geometry">
            <mxPoint x="-940" y="950" as="sourcePoint" />
            <mxPoint x="-1020" y="950" as="targetPoint" />
            <Array as="points">
              <mxPoint x="-1090" y="533" />
              <mxPoint x="-1090" y="768" />
            </Array>
          </mxGeometry>
        </mxCell>
        <mxCell id="OvIMVc_6lYj28Pk6TYb7-93" value="return" style="html=1;verticalAlign=bottom;endArrow=open;dashed=1;endSize=8;curved=0;rounded=0;elbow=vertical;entryX=0.75;entryY=0;entryDx=0;entryDy=0;exitX=1;exitY=0.5;exitDx=0;exitDy=0;" edge="1" parent="1" source="OvIMVc_6lYj28Pk6TYb7-17" target="OvIMVc_6lYj28Pk6TYb7-23">
          <mxGeometry relative="1" as="geometry">
            <mxPoint x="-900" y="960" as="sourcePoint" />
            <mxPoint x="-980" y="960" as="targetPoint" />
            <Array as="points">
              <mxPoint x="-860" y="597" />
              <mxPoint x="-860" y="660" />
              <mxPoint x="-930" y="660" />
            </Array>
          </mxGeometry>
        </mxCell>
        <mxCell id="OvIMVc_6lYj28Pk6TYb7-96" style="edgeStyle=orthogonalEdgeStyle;rounded=0;orthogonalLoop=1;jettySize=auto;html=1;exitX=0;exitY=0.5;exitDx=0;exitDy=0;entryX=0.5;entryY=0;entryDx=0;entryDy=0;elbow=vertical;" edge="1" parent="1" source="OvIMVc_6lYj28Pk6TYb7-43" target="OvIMVc_6lYj28Pk6TYb7-6">
          <mxGeometry relative="1" as="geometry">
            <Array as="points">
              <mxPoint x="-1330" y="390" />
              <mxPoint x="-1500" y="390" />
            </Array>
          </mxGeometry>
        </mxCell>
        <mxCell id="OvIMVc_6lYj28Pk6TYb7-97" style="edgeStyle=orthogonalEdgeStyle;rounded=0;orthogonalLoop=1;jettySize=auto;html=1;exitX=0;exitY=0.5;exitDx=0;exitDy=0;entryX=0;entryY=0.5;entryDx=0;entryDy=0;elbow=vertical;" edge="1" parent="1" source="OvIMVc_6lYj28Pk6TYb7-43" target="OvIMVc_6lYj28Pk6TYb7-5">
          <mxGeometry relative="1" as="geometry">
            <Array as="points">
              <mxPoint x="-1330" y="390" />
              <mxPoint x="-1620" y="390" />
              <mxPoint x="-1620" y="919" />
            </Array>
          </mxGeometry>
        </mxCell>
        <mxCell id="OvIMVc_6lYj28Pk6TYb7-98" style="edgeStyle=orthogonalEdgeStyle;rounded=0;orthogonalLoop=1;jettySize=auto;html=1;exitX=0;exitY=0.5;exitDx=0;exitDy=0;entryX=-0.032;entryY=0.086;entryDx=0;entryDy=0;entryPerimeter=0;elbow=vertical;" edge="1" parent="1" source="OvIMVc_6lYj28Pk6TYb7-43" target="OvIMVc_6lYj28Pk6TYb7-19">
          <mxGeometry relative="1" as="geometry">
            <Array as="points">
              <mxPoint x="-1330" y="390" />
              <mxPoint x="-1350" y="390" />
              <mxPoint x="-1350" y="733" />
            </Array>
          </mxGeometry>
        </mxCell>
        <mxCell id="OvIMVc_6lYj28Pk6TYb7-103" value="Text" style="edgeLabel;html=1;align=center;verticalAlign=middle;resizable=0;points=[];" vertex="1" connectable="0" parent="OvIMVc_6lYj28Pk6TYb7-98">
          <mxGeometry x="0.8383" y="2" relative="1" as="geometry">
            <mxPoint as="offset" />
          </mxGeometry>
        </mxCell>
        <mxCell id="OvIMVc_6lYj28Pk6TYb7-99" style="edgeStyle=orthogonalEdgeStyle;rounded=0;orthogonalLoop=1;jettySize=auto;html=1;exitX=1;exitY=0.5;exitDx=0;exitDy=0;entryX=0.75;entryY=0;entryDx=0;entryDy=0;elbow=vertical;" edge="1" parent="1" source="OvIMVc_6lYj28Pk6TYb7-43" target="OvIMVc_6lYj28Pk6TYb7-14">
          <mxGeometry relative="1" as="geometry" />
        </mxCell>
        <mxCell id="OvIMVc_6lYj28Pk6TYb7-101" style="edgeStyle=orthogonalEdgeStyle;rounded=0;orthogonalLoop=1;jettySize=auto;html=1;exitX=0;exitY=0.5;exitDx=0;exitDy=0;entryX=0.224;entryY=0.017;entryDx=0;entryDy=0;entryPerimeter=0;elbow=vertical;" edge="1" parent="1" source="OvIMVc_6lYj28Pk6TYb7-43" target="OvIMVc_6lYj28Pk6TYb7-10">
          <mxGeometry relative="1" as="geometry">
            <Array as="points">
              <mxPoint x="-1330" y="390" />
              <mxPoint x="-1350" y="390" />
              <mxPoint x="-1350" y="430" />
              <mxPoint x="-1244" y="430" />
            </Array>
          </mxGeometry>
        </mxCell>
      </root>
    </mxGraphModel>
  </diagram>
</mxfile>
